<svg width="68" height="25" viewBox="0 0 68 25" fill="none" xmlns="http://www.w3.org/2000/svg">
<path d="M25 12.5C25 19.4036 19.4036 25 12.5 25C5.59644 25 0 19.4036 0 12.5C0 5.59644 5.59644 0 12.5 0C19.4036 0 25 5.59644 25 12.5Z" fill="#B4B4B4"/>
<path d="M68 18.5C68 22.0899 65.0899 25 61.5 25C57.9101 25 55 22.0899 55 18.5C55 14.9101 57.9101 12 61.5 12C65.0899 12 68 14.9101 68 18.5Z" fill="#D9D9D9"/>
<path d="M26.7106 0.25L41 25H12.4212L26.7106 0.25Z" fill="#D9D9D9"/>
<path d="M41.5 22.5L34.3553 10.125L48.6447 10.125L41.5 22.5Z" fill="#D9D9D9"/>
<path d="M49.1447 12.625L56.2894 25L42 25L49.1447 12.625Z" fill="#D9D9D9"/>
</svg>
